# xmcd CD database file
#
# Track frame offsets:
#	183
#	10795
#	22640
#	35558
#	52365
#	65828
#	87503
#	105373
#	120973
#	135590
#	150325
#	167845
#
# Disc length: 2359 seconds
#
# Revision: 0
# Processed by: cddbd v1.5.1PL2 Copyright (c) Steve Scherf et al.
# Submitted via: CDex 1.51
#
DISCID=8f09350c
DTITLE=Michael Marra - Candy Phylosophy
DYEAR=1900
DGENRE=Jazz
TTITLE0=Land Of Golden Slippers
TTITLE1=Don't Look At Me
TTITLE2=Johnny Hallyday (Je Vous Salue)
TTITLE3=True Love (Something No One Should Ever Be Without)
TTITLE4=Violin Lesson
TTITLE5=To Beat The Drum
TTITLE6=Painters Painting Paint
TTITLE7=King Kong's Visit To Glasgow
TTITLE8=Guernsey Kitchen Porter
TTITLE9=Australia Instead Of Stars
TTITLE10=O Fellow Man
TTITLE11=This Evergreen Bough
EXTD=
EXTT0=
EXTT1=
EXTT2=
EXTT3=
EXTT4=
EXTT5=
EXTT6=
EXTT7=
EXTT8=
EXTT9=
EXTT10=
EXTT11=
PLAYORDER=
